<?xml version="1.0" encoding="utf-8"?>
<!-- Generator: Adobe Illustrator 19.1.0, SVG Export Plug-In . SVG Version: 6.00 Build 0)  -->
<svg version="1.1" id="Layer_1" xmlns:sketch="http://www.bohemiancoding.com/sketch/ns"
	 xmlns="http://www.w3.org/2000/svg" xmlns:xlink="http://www.w3.org/1999/xlink" x="0px" y="0px" viewBox="-260 368 111 55"
	 style="enable-background:new -260 368 111 55;" xml:space="preserve">
<style type="text/css">
	.st0{fill:none;}
	.st1{enable-background:new    ;}
	.st2{fill:#010101;}
</style>
<title>Group</title>
<desc>Created with Sketch.</desc>
<rect x="-260" y="368.1" class="st0" width="111" height="54.9"/>
<g class="st1">
	<path class="st2" d="M-251.4,368v35.9l15.9-17.9h0.7l-11.7,13.2l15.4,22.8h-5l-13.3-19.6l-1.9,2.2V422h-5v-54H-251.4z"/>
	<path class="st2" d="M-210,422.3c-5.1,0-9.2-1.4-12.3-4.3c-3.1-2.9-4.8-7.3-4.8-13.3s1.6-10.7,4.9-14c3.3-3.3,7.5-5,12.5-5
		c5.1,0,9.2,1.4,12.3,4.3c3.1,2.9,4.8,7.3,4.8,13.3s-1.6,10.7-4.9,14C-200.8,420.6-204.9,422.3-210,422.3z M-209.5,386.3
		c-3.6,0-6.7,1.6-9.1,4.9c-2.4,3.2-3.6,7.8-3.6,13.5c0,5.8,1.1,10.1,3.3,12.9c2.2,2.8,5.1,4.2,8.8,4.2c3.6,0,6.7-1.6,9.1-4.9
		c2.4-3.2,3.6-7.8,3.6-13.5c0-5.7-1.1-10.1-3.3-12.9C-203,387.7-205.9,386.3-209.5,386.3z"/>
	<path class="st2" d="M-157,422c-3.3,0-5.5-0.6-6.7-1.9c-1.1-1.1-1.7-2-1.7-2.7v-1.5c-2.4,4.3-6.1,6.4-11.3,6.4
		c-6,0-9.5-2.7-10.3-8.2c-0.1-0.6-0.1-1.2-0.1-1.8c0-0.6,0.1-1.3,0.3-2c0.2-0.7,0.7-1.5,1.7-2.4c1.8-1.7,5.8-2.8,12-3.2
		c1.5-0.1,3-0.2,4.2-0.2c1.3,0,2.5,0,3.5,0.1v-12c-0.1,0-0.1-0.3,0-0.7c0.1-0.4,0-0.9-0.3-1.6c-0.3-0.6-0.6-1.3-1-1.9
		c-0.4-0.4-1.2-1-2.3-1.4c-1.1-0.5-2.5-0.7-4.3-0.7s-3.9,0.3-6.2,1c-2.4,0.6-4.1,1.3-5.2,1.9l-0.3-0.5c4.3-2,8.6-3,13-3
		c4.9,0,8.2,0.9,9.8,2.7c1.2,1.4,1.9,2.9,1.9,4.4v24.1c0,1.4,0.3,2.5,0.8,3.2c0.6,0.7,1.1,1.1,1.7,1.2l0.8,0.1h2.2v0.6H-157z
		 M-175.5,421.7c2.5,0,4.8-0.9,6.9-2.6c2-1.8,3.1-3.4,3.3-5.1v-8.7c-1.3-0.1-2.6-0.1-3.9-0.1s-2.6,0.1-3.9,0.2
		c-3.6,0.4-6,1.2-7.1,2.4c-1.1,1.2-1.7,2.9-1.7,5c0,0.4,0,0.8,0.1,1.3C-181.5,419.2-179.4,421.7-175.5,421.7z"/>
</g>
</svg>
